<svg xmlns="http://www.w3.org/2000/svg" viewBox="0 0 23.4 23.4"><defs><style>.cls-1{isolation:isolate;}.cls-2{fill:#feffdc;}.cls-3{fill:#c29a6e;}.cls-4{opacity:0.3;}.cls-5{fill:#ebfff0;}.cls-6{fill:#fff;}.cls-7{fill:#ffc042;}.cls-8{opacity:0.7;mix-blend-mode:screen;}.cls-9{fill:#ffad33;}.cls-10{mix-blend-mode:multiply;}.cls-11{fill:#ebded1;}.cls-12{fill:#ebd6c0;}.cls-13{fill:#a77846;}.cls-14{fill:#b8844d;}.cls-15{opacity:0.8;}.cls-16{fill:#63a331;}.cls-17{fill:#3a6917;}.cls-18{fill:#adab4c;}.cls-19{fill:#4c4807;}.cls-20{fill:#262619;}.cls-21{fill:#54543a;}.cls-22{fill:#17170a;}</style></defs><title>ghee-cooking-oils-and-vinegars</title><g class="cls-1"><g id="Layer_1" data-name="Layer 1"><circle class="cls-2" cx="11.7" cy="11.7" r="11.7"/><path class="cls-3" d="M16.224,7.919a1.787,1.787,0,0,0-1.709-1.711,2.211,2.211,0,0,0-.776.151,2.5,2.5,0,0,0-1.089.783,0.309,0.309,0,0,1,.043.161c0,0.061,0,.122,0,0.183a2.242,2.242,0,0,1,1.127-.909,1.981,1.981,0,0,1,.694-0.136A1.557,1.557,0,0,1,16,7.962a2.883,2.883,0,0,1-1.347,3.232,1.4,1.4,0,0,1-.314.078,1.07,1.07,0,0,1,.214.2,1.669,1.669,0,0,0,.182-0.056A3.118,3.118,0,0,0,16.224,7.919Z" transform="translate(-0.3 -0.3)"/><g class="cls-4"><path class="cls-5" d="M16.11,7.94a1.641,1.641,0,0,0-2.33-1.472,2.456,2.456,0,0,0-1.5,2.918C12.55,10.844,13.63,11.7,14.689,11.3A3,3,0,0,0,16.11,7.94ZM15.367,9.6a1.542,1.542,0,0,1-.832.884,1.023,1.023,0,0,1-.383.067A1.516,1.516,0,0,1,12.874,9.16a1.569,1.569,0,0,1,1.06-1.868,1.6,1.6,0,0,1,.6-0.114,1.011,1.011,0,0,1,.979.987A2.523,2.523,0,0,1,15.367,9.6Z" transform="translate(-0.3 -0.3)"/></g><path class="cls-3" d="M15.523,7.791a1.129,1.129,0,0,0-.377-0.542,1.034,1.034,0,0,0-.639-0.191,1.766,1.766,0,0,0-.626.138,1.723,1.723,0,0,0-.925.823,1.441,1.441,0,0,0-.064.154,0.32,0.32,0,0,1,.046.105l0.013,0.05a1.2,1.2,0,0,1,.117-0.248,1.732,1.732,0,0,1,.891-0.68A1.136,1.136,0,0,1,15,7.449a1.5,1.5,0,0,1,.47.974,2.122,2.122,0,0,1-.113,1.167,1.4,1.4,0,0,1-.809.8,1.025,1.025,0,0,1-.845-0.086c0.034,0.069.068,0.138,0.1,0.206a0.4,0.4,0,0,1,.03.079,0.988,0.988,0,0,0,.131.034,1,1,0,0,0,.637-0.1A1.779,1.779,0,0,0,15.377,9.6a3.018,3.018,0,0,0,.244-1.189A1.966,1.966,0,0,0,15.523,7.791Z" transform="translate(-0.3 -0.3)"/><path class="cls-6" d="M12.9,7.292s1.214-1.068,2.234-.568a2.584,2.584,0,0,0-2.165.95Z" transform="translate(-0.3 -0.3)"/><g class="cls-4"><path class="cls-5" d="M11.872,21.235a5.045,5.045,0,0,1-4.838-5.443C7.1,12.853,8.4,12.068,9.083,11.153,10,9.929,10.951,8.683,10.889,4.266a4.2,4.2,0,0,0,1.854.039S12.1,8.849,14.217,11.1a6.662,6.662,0,0,1,2.2,5.21A4.9,4.9,0,0,1,11.872,21.235Z" transform="translate(-0.3 -0.3)"/></g><path class="cls-3" d="M11.872,21.247a5.669,5.669,0,0,1-2.46-.734A4.693,4.693,0,0,1,7.583,18.7a5.519,5.519,0,0,1-.648-2.514,7.163,7.163,0,0,1,.358-2.578,4.7,4.7,0,0,1,.608-1.16,10.234,10.234,0,0,1,.842-0.988,8.217,8.217,0,0,0,1.4-2.131,8.672,8.672,0,0,0,.6-2.489,19.4,19.4,0,0,0,.088-2.571l0-.075,0.075,0.022a2.583,2.583,0,0,0,.447.081,4.387,4.387,0,0,0,.46.021,5.782,5.782,0,0,0,.918-0.082l0.094-.016-0.011.1a13.44,13.44,0,0,0-.033,2.523,9.544,9.544,0,0,0,.5,2.457,5.492,5.492,0,0,0,.548,1.116,4.291,4.291,0,0,0,.372.494l0.428,0.47a8.536,8.536,0,0,1,1.418,2.144,5.629,5.629,0,0,1,.5,2.525,6.228,6.228,0,0,1-.591,2.5A4.913,4.913,0,0,1,11.872,21.247Zm0-.023a4.235,4.235,0,0,0,1.235-.261,4.8,4.8,0,0,0,1.124-.574,4.562,4.562,0,0,0,1.583-1.913,6.352,6.352,0,0,0,.508-2.436,5.6,5.6,0,0,0-.492-2.422,8.449,8.449,0,0,0-1.383-2.08l-0.425-.474a4.567,4.567,0,0,1-.388-0.524,5.738,5.738,0,0,1-.561-1.167,9.285,9.285,0,0,1-.483-2.519,13.589,13.589,0,0,1,.081-2.557l0.084,0.082a5.868,5.868,0,0,1-.942.067,4.444,4.444,0,0,1-.472-0.031,2.678,2.678,0,0,1-.469-0.094l0.073-.053a22.886,22.886,0,0,1-.122,2.581,9.535,9.535,0,0,1-.6,2.513,8.909,8.909,0,0,1-1.382,2.188,10.191,10.191,0,0,0-.807.994,4.783,4.783,0,0,0-.562,1.13,7.383,7.383,0,0,0-.339,2.508,5.639,5.639,0,0,0,.575,2.451A4.57,4.57,0,0,0,9.443,20.46a5.349,5.349,0,0,0,1.17.524A4.894,4.894,0,0,0,11.872,21.224Z" transform="translate(-0.3 -0.3)"/><path class="cls-6" d="M11.246,4.384s0.04,3.309-.8,4.644c0,0,.917-0.889,1.086-4.633Z" transform="translate(-0.3 -0.3)"/><path class="cls-6" d="M11.9,4.4s-0.142,3.827.152,3.857,0.324-3.848.324-3.848Z" transform="translate(-0.3 -0.3)"/><path class="cls-3" d="M9.7,20.616a0.592,0.592,0,0,0,.217.569,1.358,1.358,0,0,0,.556.3,4.746,4.746,0,0,0,1.3.165,5.505,5.505,0,0,0,1.313-.116,1.317,1.317,0,0,0,.572-0.268,0.465,0.465,0,0,0,.172-0.248,0.518,0.518,0,0,0-.024-0.319,0.513,0.513,0,0,1,.084.329,0.557,0.557,0,0,1-.152.322,1.423,1.423,0,0,1-.624.3,5.6,5.6,0,0,1-1.342.119,4.852,4.852,0,0,1-1.338-.17,1.483,1.483,0,0,1-.6-0.331A0.63,0.63,0,0,1,9.7,20.616Z" transform="translate(-0.3 -0.3)"/><path class="cls-7" d="M14.231,20.388a4.566,4.566,0,0,0,1.583-1.913,6.365,6.365,0,0,0,.508-2.437,5.6,5.6,0,0,0-.492-2.422,7.538,7.538,0,0,0-.887-1.468,6.836,6.836,0,0,1-3.576-.046,6.935,6.935,0,0,0-2.921-.095,6.119,6.119,0,0,0-.41.535,4.783,4.783,0,0,0-.562,1.13,7.38,7.38,0,0,0-.338,2.508c0,0.19.015,0.38,0.035,0.568a5.405,5.405,0,0,0,.54,1.883A4.572,4.572,0,0,0,9.443,20.46a5.353,5.353,0,0,0,1.17.524,4.9,4.9,0,0,0,1.259.24,4.225,4.225,0,0,0,1.235-.261A4.808,4.808,0,0,0,14.231,20.388Z" transform="translate(-0.3 -0.3)"/><g class="cls-8"><path class="cls-6" d="M10.4,11.322s-4.887,3.886-.839,7.96A11.062,11.062,0,0,1,10.4,11.322Z" transform="translate(-0.3 -0.3)"/></g><path class="cls-9" d="M12.049,19.944a5.442,5.442,0,0,1-4.511-1.7c0.053,0.132.109,0.263,0.174,0.39A4.572,4.572,0,0,0,9.443,20.46a5.353,5.353,0,0,0,1.17.524,4.9,4.9,0,0,0,1.259.24,4.225,4.225,0,0,0,1.235-.261,4.808,4.808,0,0,0,1.124-.574,4.566,4.566,0,0,0,1.583-1.913,6.365,6.365,0,0,0,.508-2.437,5.6,5.6,0,0,0-.492-2.422C15.6,13.094,15.686,19.41,12.049,19.944Z" transform="translate(-0.3 -0.3)"/><g class="cls-10"><path class="cls-11" d="M11.494,20.773a4.121,4.121,0,0,0,3.374-2.021,5.758,5.758,0,0,0,.966-3.3,3.614,3.614,0,0,1-.587,3.533C13.877,20.794,12.99,20.979,11.494,20.773Z" transform="translate(-0.3 -0.3)"/></g><path class="cls-12" d="M14.721,10.685a3.131,3.131,0,0,0,1.072-2.6S16.422,10.044,14.721,10.685Z" transform="translate(-0.3 -0.3)"/><path class="cls-13" d="M11.26,4.389a16.79,16.79,0,0,1-.522-1.895c0-.3.454-0.275,1.173-0.221s0.9,0.225.893,0.308-0.58,1.895-.58,1.895A0.693,0.693,0,0,1,11.26,4.389Z" transform="translate(-0.3 -0.3)"/><path class="cls-3" d="M10.526,3.359a3.219,3.219,0,0,0,.015.42c0.008,0.07.017,0.139,0.03,0.207a0.663,0.663,0,0,0,.024.095,0.041,0.041,0,0,0,.014.025,0.051,0.051,0,0,0,.028.026,0.885,0.885,0,0,0,.35.033l0.418-.013c0.284-.006.57,0.021,0.847,0.038a3.7,3.7,0,0,0,.407.012,0.51,0.51,0,0,0,.172-0.034A0.129,0.129,0,0,0,12.9,4.045a2.45,2.45,0,0,0,.049-0.416,0.339,0.339,0,0,0-.082-0.347,2.221,2.221,0,0,0-.81,0,4.211,4.211,0,0,1-.846-0.047c-0.14-.02-0.282-0.044-0.419-0.07a0.283,0.283,0,0,0-.192.02A0.261,0.261,0,0,0,10.526,3.359Zm-0.023,0a0.293,0.293,0,0,1,.081-0.2A0.342,0.342,0,0,1,10.8,3.105c0.143,0,.281-0.005.422-0.013a6.729,6.729,0,0,1,.84-0.011l0.42,0.026a0.924,0.924,0,0,1,.435.1,0.253,0.253,0,0,1,.114.21c0,0.077-.007.142-0.006,0.214l-0.005.425A0.327,0.327,0,0,1,13,4.181a0.251,0.251,0,0,1-.09.113,0.574,0.574,0,0,1-.23.085,2.642,2.642,0,0,1-.436.027L11.407,4.4c-0.14,0-.28,0-0.425-0.011a1.307,1.307,0,0,1-.223-0.031,0.431,0.431,0,0,1-.233-0.122,0.247,0.247,0,0,1-.058-0.129,0.861,0.861,0,0,1,0-.114c0-.073.006-0.144,0.012-0.215C10.489,3.638,10.5,3.5,10.5,3.357Z" transform="translate(-0.3 -0.3)"/><path class="cls-14" d="M10.75,2.432a2.474,2.474,0,0,0,1,.253A2.356,2.356,0,0,0,12.8,2.576c0-.092-0.186-0.249-0.892-0.3C11.245,2.223,10.807,2.165,10.75,2.432Z" transform="translate(-0.3 -0.3)"/><g class="cls-15"><path class="cls-6" d="M10.53,3.366a3.88,3.88,0,0,0,1.793.327,3.261,3.261,0,0,1-1.8.107Z" transform="translate(-0.3 -0.3)"/></g><path class="cls-16" d="M13.387,16.548a31.319,31.319,0,0,0,2.9-1.771,32.035,32.035,0,0,0-3.247,1.1c-0.954.446-1.283,0.785-1.187,0.971S12.433,16.994,13.387,16.548Z" transform="translate(-0.3 -0.3)"/><path class="cls-17" d="M13.387,16.548c-0.954.446-1.438,0.487-1.534,0.3l4.434-2.074A31.319,31.319,0,0,1,13.387,16.548Z" transform="translate(-0.3 -0.3)"/><g class="cls-10"><path class="cls-18" d="M15.92,14.949c-0.611.362-1.244,0.676-1.882,0.978s-1.289.582-1.958,0.817c0.611-.362,1.244-0.676,1.884-0.978S15.25,15.185,15.92,14.949Z" transform="translate(-0.3 -0.3)"/></g><path class="cls-19" d="M16.469,14.341l0.168,0.172a5.487,5.487,0,0,0-1.276,4.6l-0.237.038A5.732,5.732,0,0,1,16.469,14.341Z" transform="translate(-0.3 -0.3)"/><path class="cls-19" d="M15.412,16.161l0.126,0.2a8.437,8.437,0,0,0-1.757,1.712l-0.191-.146A8.514,8.514,0,0,1,15.412,16.161Z" transform="translate(-0.3 -0.3)"/><ellipse class="cls-20" cx="15.232" cy="20.007" rx="1.107" ry="1.636" transform="translate(-0.948 0.21) rotate(-1.879)"/><path class="cls-21" d="M14.625,20.27a0.522,0.522,0,0,1,.571.378,0.469,0.469,0,0,1-.123.646,0.522,0.522,0,0,1-.571-0.379A0.469,0.469,0,0,1,14.625,20.27Z" transform="translate(-0.3 -0.3)"/><ellipse class="cls-21" cx="14.572" cy="19.733" rx="0.2" ry="0.296" transform="translate(-0.653 -0.034) rotate(-1.033)"/><path class="cls-22" d="M14.645,18.881a0.86,0.86,0,0,1,.363-0.065,1.22,1.22,0,0,1,.986,1.4,1.541,1.541,0,0,1-.451,1.034,1.425,1.425,0,0,0,.574-1.3,1.2,1.2,0,0,0-.962-1.324A0.726,0.726,0,0,0,14.645,18.881Z" transform="translate(-0.3 -0.3)"/><ellipse class="cls-20" cx="12.965" cy="18.589" rx="1.373" ry="0.929" transform="translate(-9.908 16.266) rotate(-49.985)"/><path class="cls-21" d="M12.438,18.413a0.439,0.439,0,0,1,.145.557,0.394,0.394,0,0,1-.439.334A0.439,0.439,0,0,1,12,18.748,0.394,0.394,0,0,1,12.438,18.413Z" transform="translate(-0.3 -0.3)"/><ellipse class="cls-21" cx="12.707" cy="18.048" rx="0.248" ry="0.168" transform="translate(-9.558 15.565) rotate(-49.177)"/><path class="cls-22" d="M13.23,17.558a0.705,0.705,0,0,1,.263.162,1.021,1.021,0,0,1-.17,1.426,1.291,1.291,0,0,1-.86.394,1.2,1.2,0,0,0,1.086-.491,1.008,1.008,0,0,0,.142-1.365A0.608,0.608,0,0,0,13.23,17.558Z" transform="translate(-0.3 -0.3)"/><path class="cls-16" d="M16.959,18.257a36.809,36.809,0,0,0-.511-4.2,38.837,38.837,0,0,0-.474,4.284c0.005,1.316.228,1.858,0.5,1.834S16.964,19.574,16.959,18.257Z" transform="translate(-0.3 -0.3)"/><path class="cls-17" d="M16.959,18.257c0.006,1.317-.212,1.9-0.484,1.92l-0.027-6.118A36.809,36.809,0,0,1,16.959,18.257Z" transform="translate(-0.3 -0.3)"/><g class="cls-10"><path class="cls-18" d="M16.45,14.565c0.089,0.882.112,1.766,0.12,2.65s-0.016,1.766-.1,2.65c-0.09-.882-0.113-1.765-0.12-2.649S16.369,15.449,16.45,14.565Z" transform="translate(-0.3 -0.3)"/></g><path class="cls-16" d="M18.625,17.965a44.232,44.232,0,0,0-2.347-4.632A47.148,47.148,0,0,0,17.5,18.508c0.554,1.522,1.042,2.049,1.352,1.9S19.179,19.489,18.625,17.965Z" transform="translate(-0.3 -0.3)"/><path class="cls-17" d="M18.625,17.965c0.555,1.523.54,2.292,0.23,2.442l-2.576-7.074A44.232,44.232,0,0,1,18.625,17.965Z" transform="translate(-0.3 -0.3)"/><g class="cls-10"><path class="cls-18" d="M16.492,13.918c0.469,0.986.863,2,1.24,3.019s0.718,2.052.991,3.109c-0.471-.986-0.865-2-1.241-3.018S16.765,14.975,16.492,13.918Z" transform="translate(-0.3 -0.3)"/></g></g></g></svg>